HIERARCHY
ROOT reference
{
  OFFSET 0 0 0
  CHANNELS 6 Xposition Yposition Zposition Zrotation Xrotation Yrotation
  JOINT Hips
  {
    OFFSET -7.22025 85.7745 -4.41207
    CHANNELS 6 Xposition Yposition Zposition Zrotation Xrotation Yrotation
    JOINT Spine
    {
      OFFSET 0 7.88368 0
      CHANNELS 6 Xposition Yposition Zposition Zrotation Xrotation Yrotation
      JOINT Spine1
      {
        OFFSET 0 24.7763 0
        CHANNELS 6 Xposition Yposition Zposition Zrotation Xrotation Yrotation
        JOINT Neck
        {
          OFFSET 0 24.6746 2.24314
          CHANNELS 6 Xposition Yposition Zposition Zrotation Xrotation Yrotation
          JOINT Head
          {
            OFFSET 0 13.4599 -1.92285
            CHANNELS 6 Xposition Yposition Zposition Zrotation Xrotation Yrotation
            End Site
            {
              OFFSET 0 24.0356 0
            }
          }
        }
        JOINT LeftShoulder
        {
          OFFSET 3.81022 22.3233 -0.325006
          CHANNELS 6 Xposition Yposition Zposition Zrotation Xrotation Yrotation
          JOINT LeftArm
          {
            OFFSET 12.5606 0 0
            CHANNELS 6 Xposition Yposition Zposition Zrotation Xrotation Yrotation
            JOINT LeftForeArm
            {
              OFFSET 28.8068 0 0
              CHANNELS 6 Xposition Yposition Zposition Zrotation Xrotation Yrotation
              JOINT LeftHand
              {
                OFFSET 23.8139 0 0
                CHANNELS 6 Xposition Yposition Zposition Zrotation Xrotation Yrotation
                End Site
                {
                  OFFSET 14.4214 0 0
                }
              }
            }
          }
        }
        JOINT RightShoulder
        {
          OFFSET -3.82306 22.3233 -0.325006
          CHANNELS 6 Xposition Yposition Zposition Zrotation Xrotation Yrotation
          JOINT RightArm
          {
            OFFSET -12.5606 0 0
            CHANNELS 6 Xposition Yposition Zposition Zrotation Xrotation Yrotation
            JOINT RightForeArm
            {
              OFFSET -28.8068 0 0
              CHANNELS 6 Xposition Yposition Zposition Zrotation Xrotation Yrotation
              JOINT RightHand
              {
                OFFSET -23.8139 0 0
                CHANNELS 6 Xposition Yposition Zposition Zrotation Xrotation Yrotation
                End Site
                {
                  OFFSET -14.4214 0 0
                }
              }
            }
          }
        }
      }
    }
    JOINT LeftUpLeg
    {
      OFFSET 9.61425 0 0
      CHANNELS 6 Xposition Yposition Zposition Zrotation Xrotation Yrotation
      JOINT LeftLeg
      {
        OFFSET 0 -41.4642 0
        CHANNELS 6 Xposition Yposition Zposition Zrotation Xrotation Yrotation
        JOINT LeftFoot
        {
          OFFSET 0 -34.276 0
          CHANNELS 6 Xposition Yposition Zposition Zrotation Xrotation Yrotation
          JOINT LeftToeBase
          {
            OFFSET 0 -6.24926 14.4214
            CHANNELS 6 Xposition Yposition Zposition Zrotation Xrotation Yrotation
            End Site
            {
              OFFSET 0 0 3.8457
            }
          }
        }
      }
    }
    JOINT RightUpLeg
    {
      OFFSET -9.61425 0 0
      CHANNELS 6 Xposition Yposition Zposition Zrotation Xrotation Yrotation
      JOINT RightLeg
      {
        OFFSET 0 -41.4642 0
        CHANNELS 6 Xposition Yposition Zposition Zrotation Xrotation Yrotation
        JOINT RightFoot
        {
          OFFSET 0 -34.276 0
          CHANNELS 6 Xposition Yposition Zposition Zrotation Xrotation Yrotation
          JOINT RightToeBase
          {
            OFFSET 0 -6.24926 14.4214
            CHANNELS 6 Xposition Yposition Zposition Zrotation Xrotation Yrotation
            End Site
            {
              OFFSET 0 0 3.8457
            }
          }
        }
      }
    }
  }
}
MOTION
Frames:	4
Frame Time:	0.004
0 0 0 0 0 -0 -17.056 79.9732 -201.724 0.268607 -2.61918 1.37708 0 7.88368 2.84217e-014 -0.706978 -0.108477 -0.372945 0 24.7763 0 0.037649 -9.76897 -0.364995 0 24.6746 2.24314 6.73559 14.842 -3.59803 8.88178e-016 13.4599 -1.92285 -1.80657 12.1523 -3.90431 3.81022 22.3233 -0.325006 14.4717 2.46026 8.9401 12.5606 0 0 -23.1185 -1.25921 -1.45336 28.8068 0 0 4.84737 0.8154 -7.07165 23.8139 2.84217e-014 2.84217e-014 -6.61542 1.19774 -1.4308 -3.82306 22.3233 -0.325006 -13.4475 0.169321 9.17967 -12.5606 0 0 16.5166 -3.39808 -4.18004 -28.8068 2.84217e-014 2.84217e-014 -3.82895 1.14708 8.20014 -23.8139 0 0 -2.57083 1.39226 1.30883 9.61425 0 2.84217e-014 1.31488 8.37671 -0.03146 0 -41.4642 0 -10.301 -6.45835 1.107 1.77636e-015 -34.276 2.84217e-014 8.66489 -0.543142 16.2929 0 -6.24926 14.4214 0 0 -0 -9.61425 0 0 -1.31825 7.06038 4.62809 -3.55271e-015 -41.4642 0 5.13797 -7.97691 -1.01403 3.55271e-015 -34.276 0 -4.54257 0.1665 -10.9104 0 -6.24926 14.4214 -1.49089e-016 3.97569e-016 1.59028e-015 
0 0 0 0 0 -0 -17.0456 79.9732 -201.743 0.259121 -2.61918 1.37708 0 7.88368 2.84217e-014 -0.680873 -0.09333 -0.372945 0 24.7763 0 -0.024358 -9.79305 -0.374314 -1.77636e-015 24.6746 2.24314 6.84015 14.8776 -3.59862 -8.88178e-016 13.4599 -1.92285 -1.84987 12.1353 -3.90406 3.81022 22.3233 -0.325006 14.5487 2.48864 8.91851 12.5606 2.84217e-014 0 -23.2051 -1.15448 -1.37436 28.8068 0 0 5.00583 0.735054 -7.19984 23.8139 0 0 -6.71002 1.12955 -1.35445 -3.82306 22.3233 -0.325006 -13.3523 0.169616 9.19957 -12.5606 -2.84217e-014 0 16.4472 -3.38444 -4.1957 -28.8068 0 -2.84217e-014 -3.7935 1.29468 8.16285 -23.8139 -2.84217e-014 0 -3.08733 1.52968 1.32638 9.61425 0 0 1.31324 8.36103 -0.020255 0 -41.4642 0 -10.3035 -6.44218 1.08722 0 -34.276 -2.84217e-014 8.66465 -0.54172 16.3102 0 -6.24926 14.4214 -4.96962e-017 1.98785e-016 -6.36111e-015 -9.61425 0 2.84217e-014 -1.30267 7.03922 4.64 3.55271e-015 -41.4642 0 5.11818 -7.96331 -1.08757 1.77636e-015 -34.276 0 -4.56756 0.171508 -10.8545 7.10543e-015 -6.24926 14.4214 -9.93923e-017 -3.97569e-016 -7.95139e-016 
0 0 0 0 0 -0 -17.0413 79.9732 -201.749 0.250101 -2.61918 1.37708 0 7.88368 2.84217e-014 -0.673933 -0.08098 -0.372945 -3.55271e-015 24.7763 0 -0.020997 -9.80127 -0.374289 3.55271e-015 24.6746 2.24314 6.83269 14.8773 -3.59862 -1.77636e-015 13.4599 -1.92285 -1.82933 12.1405 -3.90413 3.81022 22.3233 -0.325006 14.5463 2.4969 8.91368 12.5606 0 2.84217e-014 -23.1909 -1.16532 -1.36888 28.8068 0 -2.84217e-014 5.00063 0.733221 -7.20227 23.8139 0 -2.84217e-014 -6.73628 1.12671 -1.3352 -3.82306 22.3233 -0.325006 -13.3623 0.182997 9.19042 -12.5606 2.84217e-014 0 16.4569 -3.39818 -4.17709 -28.8068 -2.84217e-014 -2.84217e-014 -3.82496 1.16646 8.17771 -23.8139 0 2.84217e-014 -2.50716 1.41134 1.3081 9.61425 0 0 1.31491 8.36421 -0.031722 8.88178e-016 -41.4642 0 -10.3022 -6.45172 1.09738 3.55271e-015 -34.276 0 8.6587 -0.528304 16.313 7.10543e-015 -6.24926 14.4214 -4.96962e-017 -1.98785e-016 -3.18055e-015 -9.61425 0 0 -1.28961 7.04018 4.64807 0 -41.4642 0 5.10206 -7.96288 -1.10357 1.77636e-015 -34.276 2.84217e-014 -4.52844 0.192097 -10.8556 0 -6.24926 14.4214 -1.98785e-016 -3.97569e-016 -2.38542e-015 
0 0 0 0 0 -0 -17.0368 79.9732 -201.76 0.248988 -2.61918 1.37708 0 7.88368 2.84217e-014 -0.67599 -0.074497 -0.373698 -1.77636e-015 24.7763 0 -0.016927 -9.80502 -0.374752 0 24.6746 2.24314 6.83921 14.8736 -3.6038 1.77636e-015 13.4599 -1.92285 -1.83288 12.151 -3.90995 3.81022 22.3233 -0.325006 14.548 2.49333 8.91609 12.5606 0 0 -23.1781 -1.14337 -1.37271 28.8068 0 -2.84217e-014 4.99738 0.710727 -7.1891 23.8139 0 0 -6.75147 1.10456 -1.35225 -3.82306 22.3233 -0.325006 -13.3709 0.167856 9.18757 -12.5606 -2.84217e-014 0 16.4885 -3.2165 -4.19259 -28.8068 2.84217e-014 0 -3.86593 1.08556 8.20522 -23.8139 0 0 -2.46098 1.33556 1.27395 9.61425 2.84217e-014 2.84217e-014 1.3139 8.35485 -0.024835 -8.88178e-016 -41.4642 0 -10.3042 -6.44956 1.07978 0 -34.276 0 8.67149 -0.520947 16.3226 -7.10543e-015 -6.24926 14.4214 4.96962e-017 0 6.36111e-015 -9.61425 0 0 -1.29264 7.02608 4.6539 3.55271e-015 -41.4642 -2.84217e-014 5.10391 -7.95182 -1.08316 1.77636e-015 -34.276 0 -4.55535 0.194231 -10.8705 0 -6.24926 14.4214 1.49089e-016 0 -7.95139e-016 
